<?xml version="1.0" encoding="utf-8"?>
<!-- Generator: Adobe Illustrator 25.0.1, SVG Export Plug-In . SVG Version: 6.00 Build 0)  -->
<svg version="1.1" id="Camada_1" xmlns="http://www.w3.org/2000/svg" xmlns:xlink="http://www.w3.org/1999/xlink" x="0px" y="0px"
	 viewBox="0 0 841.89 595.28" style="enable-background:new 0 0 841.89 595.28;" xml:space="preserve">
<style type="text/css">
	.st0{fill:none;}
	.st1{fill:#FFFFFF;}
</style>
<g>
	<path class="st0" d="M366.02,183.33c8.5,0.19,16.85,1.02,25.03,2.4c3.1-0.2,6.2-0.4,9.37-0.53
		c105.8-4.56,149.91-32.36,168.28-54.88c7.88-9.66,11.56-18.88,13.25-26.09c-29.46,6.9-72.02,12.42-133.51,14.26
		c-86.15,2.58-148.27,32.37-184.62,88.57c-6.4,9.89-11.36,19.74-15.25,29.03c28.82-23.63,62.77-38.62,104.67-45.95
		C361.54,183.23,364.11,183.27,366.02,183.33z"/>
	<path class="st0" d="M520.69,285.34c10.26-6.33,19.39-13.97,27.31-22.99c-9.57,5.41-20.24,10.01-31.83,13.93
		C517.75,279.25,519.27,282.26,520.69,285.34z"/>
	<path class="st1" d="M506.97,306.07c-1.57,0.65-3.19,1.25-4.8,1.85c-1.64,0.62-3.29,1.22-4.97,1.79c-1.72,0.58-3.46,1.14-5.22,1.67
		c-0.92,0.28-1.83,0.56-2.76,0.83c6.5,21.08,7.69,43.59,3.11,65.84c-7.16,34.81-27.41,64.71-57.01,84.21
		c-21.91,14.43-47.04,21.91-72.74,21.91c-9.01,0-18.09-0.92-27.14-2.78c-34.81-7.16-64.71-27.41-84.21-57.01
		c-11.5-17.47-18.18-36.69-20.66-56.16c-18.37,18.83-22.87,36.95-23.77,41.82c26.72,71.29,99.09,117.44,172.52,109.54
		c89.08-9.63,153.72-89.95,144.09-179.03c-1.43-13.19-4.45-25.87-8.82-37.89c-0.52,0.25-1.06,0.46-1.58,0.71
		C511.02,304.3,509.02,305.22,506.97,306.07z"/>
	<path class="st1" d="M380.43,318.93c-4.63,0.11-9.16,0.28-13.54,0.52c-1.43,0.08-2.81,0.2-4.23,0.29
		c-3.17,0.21-6.31,0.44-9.35,0.71c-1.73,0.16-3.43,0.34-5.14,0.51c-2.81,0.29-5.57,0.61-8.27,0.96c-1.43,0.18-2.87,0.37-4.28,0.57
		c-0.83,0.12-1.6,0.26-2.41,0.38c-5.4,5.51-9.15,12.45-10.74,20.21c-2.19,10.64-0.11,21.47,5.84,30.51v0
		c12.32,18.69,37.54,23.89,56.24,11.57c18.69-12.31,23.89-37.54,11.58-56.24c-2.65-4.02-5.93-7.36-9.57-10.09c-0.33,0-0.67,0-1,0
		C383.84,318.88,382.12,318.89,380.43,318.93z"/>
	<path class="st1" d="M597.89,165.6c6.7-6.09,12.62-12.65,17.69-19.71c17.31-24.08,21.02-48.64,21.26-64.25
		c-7.35,6.01-19.58,12.64-39.82,18.62C598.71,114.23,600.52,138.33,597.89,165.6z"/>
	<path class="st1" d="M194.37,410.72c0-0.03-0.01-0.07-0.01-0.1C194.36,410.66,194.36,410.69,194.37,410.72z"/>
	<path class="st1" d="M518,300.92c-1.13,0.59-2.26,1.18-3.42,1.74c4.37,12.02,7.4,24.7,8.82,37.89
		c9.64,89.08-55,169.4-144.09,179.03c-73.43,7.9-145.8-38.25-172.52-109.54c-0.14,0.76-0.2,1.21-0.2,1.27l-2.34,22.65
		c31.05,59.81,93.16,98.71,158.66,98.71c5.89,0,11.8-0.31,17.72-0.95c95.78-10.36,165.28-96.71,154.92-192.49
		c-1.6-14.79-5.08-28.98-10.11-42.39c-0.23,0.14-0.49,0.26-0.72,0.39C522.53,298.53,520.28,299.74,518,300.92z"/>
	<path class="st1" d="M481.49,314.22c-1.38,0.32-2.79,0.6-4.19,0.89c6.09,19.35,7.27,40.03,3.06,60.49
		c-6.51,31.61-24.89,58.77-51.77,76.47c-26.87,17.7-59.1,23.86-90.7,17.36c-31.61-6.51-58.77-24.89-76.47-51.77
		c-12.13-18.43-18.43-38.99-19.56-59.57c-4.26,3.36-8,6.75-11.3,10.13c2.47,19.47,9.15,38.69,20.66,56.16
		c19.5,29.6,49.4,49.85,84.21,57.01c9.04,1.86,18.12,2.78,27.14,2.78c25.7,0,50.83-7.47,72.74-21.91
		c29.6-19.5,49.85-49.4,57.01-84.21c4.58-22.25,3.39-44.75-3.11-65.84c-0.78,0.22-1.59,0.4-2.37,0.61
		C485.07,313.31,483.31,313.79,481.49,314.22z"/>
	<path class="st1" d="M396.1,318.83c-3.25-0.03-6.41-0.01-9.55,0.03c3.65,2.73,6.93,6.07,9.57,10.09
		c12.31,18.7,7.11,43.93-11.58,56.24c-18.7,12.31-43.92,7.12-56.24-11.57v0c-5.95-9.04-8.03-19.87-5.84-30.51
		c1.6-7.76,5.34-14.7,10.74-20.21c-2.61,0.39-5.22,0.79-7.73,1.23c-0.53,0.09-1.07,0.17-1.59,0.27c-2.79,0.51-5.43,1.09-8.08,1.66
		c-2.44,4.52-4.24,9.42-5.3,14.6c-2.85,13.83-0.15,27.93,7.6,39.69c10.13,15.39,27,23.75,44.19,23.75c9.97,0,20.04-2.81,28.97-8.69
		c24.32-16.02,31.08-48.84,15.06-73.16c-0.75-1.14-1.57-2.19-2.39-3.25c-0.93-0.02-1.91-0.07-2.83-0.09
		C399.42,318.86,397.76,318.85,396.1,318.83z"/>
	<path class="st1" d="M647.63,62.6c0,0-15.7,13.79-52.46,25.17c0.19,0.99,1,5.44,1.85,12.5c20.24-5.99,32.47-12.61,39.82-18.62
		c-0.24,15.61-3.95,40.17-21.26,64.25c-5.07,7.06-10.99,13.62-17.69,19.71c-0.56,5.79-1.3,11.71-2.3,17.72
		c11.79-8.96,21.81-19.04,29.91-30.31C657.03,109.15,648.03,64.48,647.63,62.6z"/>
	<path class="st1" d="M248.03,236.52c0.18-0.15,0.36-0.28,0.54-0.42c3.89-9.3,8.85-19.14,15.25-29.03
		c36.35-56.19,98.47-85.99,184.62-88.57c61.48-1.84,104.05-7.36,133.51-14.26c1.47-6.27,1.44-10.98,1.3-13.13
		c-27.82,7.06-70.27,13.24-135.17,15.18c-157.93,4.72-205.33,99.73-219.45,151.25C235.13,249.34,242.61,240.99,248.03,236.52z"/>
	<path class="st1" d="M520.69,285.34c0.04,0.08,0.07,0.15,0.11,0.23c10.26-6.37,19.4-14.1,27.36-23.29
		c-0.05,0.03-0.11,0.05-0.16,0.08C540.08,271.37,530.95,279.01,520.69,285.34z"/>
	<path class="st1" d="M567.23,233.16c0.29-0.28,0.61-0.53,0.9-0.82l20.68-20.19c2.98-9.63,5.2-19.32,6.78-28.82
		c-4.61,3.5-9.45,6.86-14.62,10.01C577.98,206.8,573.53,220.34,567.23,233.16z"/>
	<path class="st1" d="M502.17,307.93c-1.64,0.62-3.29,1.22-4.97,1.79C498.88,309.15,500.53,308.54,502.17,307.93z"/>
	<path class="st1" d="M366.89,319.45c-1.44,0.08-2.81,0.2-4.23,0.29C364.08,319.65,365.46,319.53,366.89,319.45z"/>
	<path class="st1" d="M544.08,283.36c4.85-4.18,9.42-8.68,13.66-13.57c0.44-0.51,0.84-1.05,1.27-1.56
		C554.41,273.72,549.42,278.75,544.08,283.36z"/>
	<path class="st1" d="M300.77,329.67c-0.04,0.01-0.07,0.02-0.1,0.03C300.7,329.69,300.74,329.68,300.77,329.67z"/>
	<path class="st1" d="M366.43,195.56c-0.9,0.42-3.12,1.83-7.89,6.09c10.09-1.65,20.66-2.87,31.76-3.63
		C382.5,196.63,374.54,195.78,366.43,195.56z"/>
	<path class="st1" d="M568.7,130.32c-18.37,22.52-62.48,50.32-168.28,54.88c-3.17,0.14-6.28,0.33-9.37,0.53
		c12.28,2.08,24.15,5.46,35.46,10c74.52-6.33,125.53-25.67,151.65-57.69c3.44-4.21,6.21-8.38,8.43-12.41
		c0.52,14.56,0.12,32.37-2.6,51.06c4.95-3.5,9.6-7.19,13.89-11.1c2.63-27.28,0.82-51.37-0.87-65.34c-4.6,1.36-9.61,2.69-15.08,3.97
		C580.26,111.45,576.58,120.66,568.7,130.32z"/>
	<path class="st1" d="M385.54,318.86c-1.71,0.02-3.44,0.03-5.11,0.07C382.12,318.89,383.84,318.88,385.54,318.86z"/>
	<path class="st1" d="M475.09,315.56c0.74-0.15,1.47-0.29,2.21-0.45c0,0,0-0.01,0-0.01C476.56,315.25,475.83,315.41,475.09,315.56z"
		/>
	<path class="st1" d="M442.54,319.39c-2.61,0.12-5.25,0.19-7.92,0.22C437.28,319.58,439.93,319.51,442.54,319.39z"/>
	<path class="st1" d="M353.31,320.46c-1.74,0.16-3.44,0.34-5.14,0.51C349.88,320.8,351.58,320.62,353.31,320.46z"/>
	<path class="st1" d="M430,319.68c-4.25-0.01-8.56-0.09-12.96-0.29C421.44,319.59,425.75,319.67,430,319.68z"/>
	<path class="st1" d="M205.83,359.88c1.54-22.14,6-48.18,16.91-70.78c0.24-3.33,1.41-15.25,5.88-31.56
		c-4.62,5.81-8.77,11.54-11.29,15.76c-31.73,53-24.04,128.24-22.97,137.33c-0.01-0.08,0.01-0.19,0.01-0.28
		C194.01,405.54,193.39,384.17,205.83,359.88z"/>
	<path class="st1" d="M454.72,318.52c-2.29,0.22-4.59,0.42-6.93,0.58C450.13,318.95,452.43,318.75,454.72,318.52z"/>
	<path class="st1" d="M402.6,306.69c0.81,0.02,1.61,0.02,2.43,0.05C404.21,306.72,403.41,306.71,402.6,306.69z"/>
	<path class="st1" d="M489.22,312.22c0.93-0.26,1.84-0.55,2.76-0.83c-0.91,0.28-1.85,0.52-2.78,0.78
		C489.2,312.19,489.21,312.2,489.22,312.22z"/>
	<path class="st1" d="M577.82,239.53c-5.36,10.58-11.61,20.13-18.74,28.62C566.6,259.21,572.77,249.56,577.82,239.53z"/>
	<path class="st1" d="M533.45,291.6c-1.81,1.27-3.67,2.47-5.55,3.65C529.79,294.07,531.64,292.86,533.45,291.6z"/>
	<path class="st1" d="M339.9,321.94c-1.43,0.19-2.87,0.37-4.28,0.57C337.04,322.3,338.47,322.12,339.9,321.94z"/>
	<path class="st1" d="M255.81,245.94c22.74-18.77,49.02-31.82,80.39-39.7c7.47-7.6,12.95-12.7,17.03-16.1
		c-41.9,7.33-75.85,22.32-104.67,45.95c-4.21,10.07-7.1,19.4-9.13,27.47C245.15,256.51,251.44,249.55,255.81,245.94z"/>
	<path class="st1" d="M390.54,306.58c0.47,0,0.95,0,1.42,0C391.49,306.58,391.01,306.58,390.54,306.58z"/>
	<path class="st1" d="M485.2,300.9c8.88-2.44,17.18-5.54,24.89-9.34c-0.04-0.08-0.07-0.17-0.11-0.25
		c-7.73,3.79-16.04,6.91-24.89,9.37C485.12,300.76,485.17,300.83,485.2,300.9z"/>
	<path class="st1" d="M417.61,307.18c20.38,0.96,38.8-0.23,55.43-3.48c-0.03-0.06-0.06-0.12-0.08-0.17
		C456.25,306.87,437.82,308.13,417.61,307.18z"/>
	<path class="st1" d="M513,303.36c-1.99,0.93-3.98,1.86-6.04,2.71C509.02,305.22,511.02,304.3,513,303.36z"/>
	<path class="st1" d="M467.19,316.96c-2.39,0.37-4.78,0.74-7.23,1.04C462.41,317.7,464.8,317.33,467.19,316.96z"/>
	<path class="st1" d="M542.21,284.91c-1.92,1.6-3.89,3.15-5.91,4.64C538.32,288.06,540.28,286.51,542.21,284.91z"/>
	<path class="st1" d="M194.41,410.91c-0.01-0.07-0.03-0.12-0.04-0.19c0.04,0.34,0.07,0.62,0.09,0.75l0.01,0.04l-0.02-0.16
		C194.44,411.29,194.42,411.08,194.41,410.91z"/>
	<path class="st1" d="M336.2,206.25c7.17-1.8,14.61-3.33,22.33-4.6c4.77-4.25,6.99-5.66,7.89-6.09c8.11,0.22,16.08,1.07,23.87,2.45
		c3.5-0.24,7.04-0.45,10.65-0.61c8.84-0.38,17.31-0.97,25.57-1.67c-11.31-4.53-23.18-7.92-35.46-10
		c-13.29,0.87-25.88,2.32-37.81,4.41C349.15,193.55,343.67,198.64,336.2,206.25z"/>
	<path class="st1" d="M194.36,410.34c0,0.09-0.01,0.2-0.01,0.28c0,0.03,0.01,0.07,0.01,0.1c0.01,0.07,0.03,0.12,0.04,0.19
		C194.39,410.75,194.38,410.59,194.36,410.34z"/>
	<path class="st1" d="M524.72,297.24c-2.19,1.29-4.44,2.5-6.72,3.68C520.28,299.74,522.53,298.53,524.72,297.24z"/>
	<path class="st1" d="M509.98,291.31c0.04,0.08,0.07,0.17,0.11,0.25c3.71-1.83,7.26-3.86,10.7-6c-0.03-0.08-0.07-0.15-0.11-0.23
		C517.24,287.46,513.7,289.49,509.98,291.31z"/>
	<path class="st1" d="M396.1,318.83c1.66,0.01,3.32,0.03,5,0.06C399.41,318.86,397.76,318.85,396.1,318.83z"/>
	<path class="st1" d="M325.48,324.12c-0.52,0.09-1.07,0.17-1.59,0.27C324.41,324.29,324.96,324.21,325.48,324.12z"/>
	<path class="st1" d="M477.3,315.11c1.4-0.29,2.82-0.57,4.19-0.89c-1.38,0.32-2.8,0.58-4.2,0.88
		C477.3,315.1,477.3,315.11,477.3,315.11z"/>
	<path class="st1" d="M473.04,303.7c4.16-0.81,8.23-1.72,12.15-2.8c-0.03-0.07-0.07-0.15-0.1-0.22c-3.92,1.09-7.99,2.02-12.13,2.85
		C472.99,303.59,473.02,303.64,473.04,303.7z"/>
	<path class="st1" d="M486.84,312.83c0.79-0.21,1.59-0.39,2.37-0.61c-0.01-0.02-0.01-0.03-0.02-0.05
		C488.42,312.39,487.64,312.62,486.84,312.83z"/>
	<path class="st1" d="M581.95,104.24c5.47-1.28,10.48-2.61,15.08-3.97c0-7.15-1.67-11.51-1.85-12.5c-3.64,1.13-7.6,2.24-11.92,3.34
		C583.39,93.26,583.03,97.97,581.95,104.24z"/>
	<path class="st1" d="M227.81,279.56c2.47-4.13,6.85-10.09,11.63-15.99c2.03-8.07,4.92-17.4,9.13-27.47
		c-0.18,0.15-0.36,0.28-0.54,0.42c-5.42,4.47-12.9,12.82-19.41,21.01c-4.47,16.31-5.64,28.23-5.88,31.56
		C224.31,285.85,225.97,282.65,227.81,279.56z"/>
	<path class="st1" d="M584,176.7c-0.8,5.49-1.78,11.05-3.02,16.64c5.17-3.15,10.01-6.51,14.62-10.01c1-6.01,1.74-11.93,2.3-17.72
		C593.6,169.51,588.95,173.2,584,176.7z"/>
	<path class="st1" d="M447.79,319.1c-1.74,0.12-3.48,0.21-5.25,0.29C444.3,319.31,446.05,319.22,447.79,319.1z"/>
	<path class="st1" d="M362.66,319.75c-3.15,0.21-6.28,0.44-9.35,0.71C356.36,320.18,359.49,319.96,362.66,319.75z"/>
	<path class="st1" d="M559.08,268.15c-0.02,0.02-0.04,0.05-0.06,0.07C559.04,268.2,559.06,268.18,559.08,268.15z"/>
	<path class="st1" d="M380.43,318.93c-4.58,0.11-9.11,0.27-13.54,0.52C371.27,319.21,375.8,319.05,380.43,318.93z"/>
	<path class="st1" d="M348.17,320.97c-2.79,0.29-5.55,0.61-8.27,0.96C342.6,321.59,345.36,321.27,348.17,320.97z"/>
	<path class="st1" d="M405.03,306.74c4.15,0.1,8.34,0.24,12.59,0.44C413.33,306.98,409.15,306.84,405.03,306.74z"/>
	<path class="st1" d="M525.44,296.84c0.84-0.51,1.64-1.07,2.47-1.59c-0.83,0.52-1.64,1.05-2.49,1.55
		C525.43,296.82,525.43,296.83,525.44,296.84z"/>
	<path class="st1" d="M242.69,341.76c-0.15,0.22-0.29,0.45-0.44,0.67c16.31-11.01,38.09-20.97,67.34-27.6
		c1.81-0.41,3.68-0.79,5.56-1.17l1.74-0.36c1.19-0.25,2.37-0.49,3.6-0.72c2.35-0.44,4.78-0.82,7.2-1.21
		c0.06-0.05,0.12-0.11,0.18-0.16C289.55,317.29,262.19,328.73,242.69,341.76z"/>
	<path class="st1" d="M390.54,306.58c-0.1,0-0.2,0-0.3,0c0,0,0,0,0.01,0C390.34,306.58,390.44,306.58,390.54,306.58z"/>
	<path class="st1" d="M434.62,319.62c-1.54,0.02-3.06,0.06-4.61,0.06C431.56,319.68,433.08,319.64,434.62,319.62z"/>
	<path class="st1" d="M391.96,306.58c3.51,0,7.06,0.04,10.64,0.12C398.99,306.62,395.45,306.58,391.96,306.58z"/>
	<path class="st1" d="M513,303.36c0.52-0.24,1.06-0.46,1.58-0.71c0,0,0-0.01,0-0.01C514.06,302.89,513.53,303.12,513,303.36z"/>
	<path class="st1" d="M312.3,326.74c-4.01,0.91-7.81,1.9-11.53,2.93c4.74-1.32,9.81-2.51,15.03-3.63c0.01-0.02,0.02-0.04,0.03-0.06
		C314.58,326.24,313.4,326.49,312.3,326.74z"/>
	<path class="st1" d="M506.97,306.07c-1.57,0.65-3.19,1.25-4.8,1.85C503.78,307.32,505.4,306.73,506.97,306.07z"/>
	<path class="st1" d="M403.93,318.98c4.31,0.1,8.61,0.19,13.11,0.41c-4.44-0.21-8.82-0.36-13.15-0.46
		C403.91,318.94,403.92,318.96,403.93,318.98z"/>
	<path class="st1" d="M241.85,357.78c0.01,0.1,0.01,0.21,0.01,0.31c13.69-10.78,32.59-21.05,58.81-28.39
		C274.46,336.99,255.52,347.11,241.85,357.78z"/>
	<path class="st1" d="M497.2,309.72c-1.72,0.58-3.46,1.14-5.22,1.67C493.74,310.86,495.48,310.3,497.2,309.72z"/>
	<path class="st1" d="M475.09,315.56c-2.6,0.51-5.23,0.98-7.91,1.4C469.86,316.54,472.5,316.07,475.09,315.56z"/>
	<path class="st1" d="M544.08,283.36c-0.61,0.53-1.25,1.03-1.88,1.55C542.83,284.39,543.47,283.89,544.08,283.36z"/>
	<path class="st1" d="M230.51,367.85c-18.53,18.87-22.86,37.09-23.73,42.16c0,0.01,0.01,0.02,0.01,0.02
		c0.9-4.87,5.4-22.99,23.77-41.82C230.55,368.1,230.53,367.98,230.51,367.85z"/>
	<path class="st1" d="M385.54,318.86c0.33,0,0.67,0,1,0c0,0-0.01-0.01-0.01-0.01C386.2,318.85,385.87,318.86,385.54,318.86z"/>
	<path class="st1" d="M333.28,322.82c-0.02,0.02-0.04,0.05-0.07,0.07c0.82-0.12,1.59-0.27,2.41-0.38
		C334.85,322.61,334.05,322.7,333.28,322.82z"/>
	<path class="st1" d="M536.3,289.55c-0.94,0.69-1.88,1.38-2.84,2.05C534.41,290.93,535.36,290.24,536.3,289.55z"/>
	<path class="st1" d="M459.96,317.99c-1.72,0.21-3.49,0.36-5.24,0.53C456.47,318.36,458.23,318.2,459.96,317.99z"/>
	<path class="st1" d="M242.69,341.76c-0.22,0.15-0.43,0.29-0.65,0.44c-0.01,0.13-0.01,0.26-0.02,0.39c0.08-0.05,0.16-0.11,0.24-0.16
		C242.4,342.2,242.54,341.98,242.69,341.76z"/>
	<path class="st1" d="M206.8,410.04c0-0.01-0.01-0.02-0.01-0.02c-0.12,0.68-0.18,1.15-0.2,1.33l-2.51,22.27
		c0.06,0.12,0.12,0.23,0.18,0.35l2.34-22.65C206.6,411.25,206.66,410.8,206.8,410.04z"/>
	<path class="st1" d="M514.58,302.66c1.16-0.56,2.28-1.15,3.42-1.74c-1.13,0.59-2.27,1.17-3.42,1.73
		C514.58,302.65,514.58,302.65,514.58,302.66z"/>
	<path class="st1" d="M524.72,297.24c0.23-0.14,0.49-0.25,0.72-0.39c-0.01-0.01-0.01-0.03-0.02-0.04
		C525.18,296.94,524.96,297.1,524.72,297.24z"/>
	<path class="st1" d="M486.84,312.83c-1.77,0.47-3.54,0.96-5.35,1.39C483.31,313.79,485.07,313.31,486.84,312.83z"/>
	<path class="st1" d="M241.86,358.09c-0.01-0.1-0.01-0.21-0.01-0.31c-4.27,3.33-8.03,6.71-11.34,10.08
		c0.02,0.12,0.03,0.25,0.05,0.37C233.86,364.84,237.6,361.44,241.86,358.09z"/>
	<path class="st1" d="M322.73,324.58c-1.14,0.21-2.25,0.44-3.35,0.67l-1.33,0.27c-0.81,0.16-1.5,0.31-2.21,0.45
		c-0.01,0.02-0.02,0.04-0.03,0.06c2.66-0.57,5.3-1.15,8.08-1.66C323.51,324.45,323.11,324.51,322.73,324.58z"/>
	<path class="st1" d="M401.1,318.89c0.92,0.02,1.9,0.07,2.83,0.09c-0.01-0.02-0.03-0.04-0.04-0.06
		C402.95,318.9,402.04,318.91,401.1,318.89z"/>
	<path class="st1" d="M386.53,318.85c0,0,0.01,0.01,0.01,0.01c3.14-0.03,6.3-0.05,9.55-0.03
		C392.88,318.81,389.69,318.81,386.53,318.85z"/>
	<path class="st1" d="M325.48,324.12c2.5-0.44,5.12-0.84,7.73-1.23c0.02-0.02,0.04-0.05,0.07-0.07
		C330.63,323.21,328.06,323.66,325.48,324.12z"/>
	<path class="st1" d="M390.24,306.58c-23.48,0.06-44.16,1.74-62.36,4.63c-0.06,0.05-0.12,0.11-0.18,0.16
		C346.79,308.28,367.7,306.66,390.24,306.58C390.24,306.58,390.24,306.58,390.24,306.58z"/>
	<path class="st1" d="M242.04,342.2c-4.63,3.13-8.83,6.34-12.61,9.59c0,0.13,0.01,0.25,0.01,0.38c3.77-3.25,7.95-6.45,12.57-9.58
		C242.02,342.46,242.03,342.33,242.04,342.2z"/>
	<path class="st1" d="M205.83,359.88c-12.43,24.29-11.81,45.66-11.46,50.46c-0.3-6.08,3.91-16.79,10.74-29.85
		C205.11,374.25,205.31,367.28,205.83,359.88z"/>
	<path class="st1" d="M489.2,312.17c0.92-0.26,1.86-0.51,2.78-0.78c1.76-0.53,3.5-1.09,5.22-1.67c1.68-0.57,3.33-1.17,4.97-1.79
		c1.61-0.61,3.23-1.2,4.8-1.85c2.05-0.85,4.05-1.78,6.04-2.71c0.52-0.24,1.06-0.47,1.57-0.72c-1.37-3.76-2.86-7.46-4.49-11.08
		c-7.72,3.8-16.02,6.9-24.89,9.34C486.72,304.6,488.03,308.37,489.2,312.17z"/>
	<path class="st1" d="M229.8,361.97c-14.08,22.79-23.99,41.56-23.44,47.01c0.13,0.35,0.3,0.68,0.43,1.04
		c0.87-5.07,5.2-23.29,23.73-42.16C230.27,365.89,229.95,363.93,229.8,361.97z"/>
	<path class="st1" d="M567.23,233.16c-4.99,10.15-11.1,19.86-18.74,28.67c-0.16,0.18-0.33,0.34-0.49,0.52
		c0.05-0.03,0.11-0.05,0.16-0.08c-7.97,9.19-17.11,16.92-27.36,23.29c1.68,3.67,3.2,7.43,4.63,11.24c0.84-0.5,1.66-1.03,2.49-1.55
		c1.88-1.18,3.74-2.39,5.55-3.65c0.96-0.67,1.9-1.35,2.84-2.05c2.02-1.49,3.99-3.04,5.91-4.64c0.62-0.52,1.26-1.02,1.88-1.55
		c5.34-4.61,10.33-9.65,14.94-15.13c0.02-0.02,0.04-0.05,0.06-0.07c7.13-8.5,13.37-18.04,18.74-28.62
		c4.49-8.91,8.11-18.11,10.99-27.38l-20.68,20.19C567.84,232.62,567.52,232.88,567.23,233.16z"/>
	<path class="st1" d="M300.77,329.67c3.71-1.03,7.52-2.02,11.53-2.93c1.1-0.25,2.28-0.5,3.54-0.76c3.01-5.54,7.03-10.46,11.86-14.61
		c-2.41,0.39-4.84,0.77-7.2,1.21c-1.23,0.23-2.42,0.47-3.6,0.72l-1.74,0.36c-1.88,0.38-3.75,0.76-5.56,1.17
		c-29.26,6.63-51.03,16.6-67.34,27.6c-0.08,0.13-0.17,0.26-0.25,0.38c-0.36,4.97-0.41,9.96-0.15,14.96
		c13.67-10.67,32.61-20.79,58.82-28.08C300.7,329.69,300.74,329.68,300.77,329.67z"/>
	<path class="st1" d="M339.9,321.94c2.72-0.35,5.48-0.67,8.27-0.96c1.7-0.18,3.4-0.36,5.14-0.51c3.07-0.28,6.2-0.51,9.35-0.71
		c1.42-0.09,2.78-0.21,4.23-0.29c4.43-0.25,8.96-0.41,13.54-0.52c1.68-0.04,3.4-0.05,5.11-0.07c0.33,0,0.66-0.01,0.99-0.01
		c-7.09-5.3-15.67-8.15-24.39-8.15c-7.66,0-15.4,2.16-22.27,6.68c-2.42,1.59-4.61,3.43-6.6,5.44c0.77-0.11,1.57-0.2,2.35-0.31
		C337.03,322.3,338.47,322.12,339.9,321.94z"/>
	<path class="st1" d="M417.61,307.18c-4.25-0.2-8.44-0.34-12.59-0.44c-0.82-0.02-1.62-0.03-2.43-0.05
		c-3.58-0.07-7.13-0.12-10.64-0.12c-0.48,0-0.95,0-1.42,0c-0.1,0-0.19,0-0.29,0c5.13,3.21,9.77,7.33,13.65,12.34
		c4.33,0.1,8.71,0.25,13.15,0.46c4.41,0.21,8.71,0.28,12.96,0.29c1.56,0,3.08-0.04,4.61-0.06c2.67-0.04,5.31-0.11,7.92-0.22
		c1.76-0.08,3.51-0.18,5.25-0.29c2.34-0.16,4.64-0.36,6.93-0.58c1.75-0.17,3.52-0.32,5.24-0.53c2.45-0.29,4.84-0.66,7.23-1.04
		c2.68-0.42,5.31-0.88,7.91-1.4c0.74-0.15,1.47-0.31,2.2-0.46c-1.22-3.86-2.64-7.65-4.25-11.39
		C456.42,306.95,437.99,308.14,417.61,307.18z"/>
	<path class="st1" d="M514.58,302.64c1.15-0.56,2.29-1.14,3.42-1.73c2.28-1.18,4.53-2.39,6.72-3.68c0.24-0.14,0.47-0.3,0.7-0.44
		c-1.43-3.81-2.95-7.57-4.63-11.24c-3.45,2.14-6.99,4.17-10.7,6C511.72,295.19,513.21,298.88,514.58,302.64z"/>
	<path class="st1" d="M229.8,361.97c-0.26-3.26-0.34-6.53-0.35-9.8c-11.38,9.8-19.15,19.9-24.35,28.87c0-0.18,0-0.37,0-0.55
		c-6.83,13.06-11.04,23.77-10.74,29.85c0.02,0.25,0.03,0.41,0.04,0.57c0.07,0.68,0.18,1.33,0.38,1.88
		c2.64,7.21,5.82,14.12,9.29,20.83l2.51-22.27c0.02-0.17,0.08-0.64,0.2-1.33c-0.13-0.35-0.3-0.68-0.43-1.04
		C205.81,403.53,215.71,384.75,229.8,361.97z"/>
	<path class="st1" d="M242.01,342.59c-0.01,0.07-0.01,0.15-0.01,0.22c0.08-0.13,0.17-0.26,0.25-0.38
		C242.17,342.48,242.09,342.54,242.01,342.59z"/>
	<path class="st1" d="M319.38,325.25c1.1-0.23,2.21-0.46,3.35-0.67c0.38-0.07,0.78-0.13,1.16-0.19c0.52-0.09,1.07-0.17,1.59-0.27
		c2.57-0.45,5.15-0.91,7.8-1.3c1.99-2.02,4.18-3.85,6.6-5.44c6.86-4.52,14.61-6.68,22.27-6.68c8.72,0,17.3,2.85,24.39,8.15
		c3.16-0.04,6.34-0.04,9.57-0.01c1.66,0.01,3.31,0.03,5,0.06c0.94,0.02,1.85,0.01,2.79,0.03c-3.88-5-8.52-9.13-13.65-12.34
		c-22.54,0.08-43.46,1.69-62.55,4.78c-4.82,4.16-8.85,9.07-11.86,14.61c0.71-0.15,1.4-0.29,2.21-0.45L319.38,325.25z"/>
	<path class="st1" d="M241.85,357.78c-0.26-5-0.2-9.99,0.15-14.96c-4.29,6.56-8.4,13-12.2,19.15c0.16,1.97,0.47,3.92,0.72,5.89
		C233.82,364.49,237.58,361.11,241.85,357.78z"/>
	<path class="st1" d="M477.29,315.1c1.4-0.29,2.82-0.55,4.2-0.88c1.81-0.43,3.58-0.91,5.35-1.39c0.79-0.21,1.57-0.44,2.36-0.66
		c-1.17-3.8-2.48-7.57-4-11.27c-3.93,1.08-8,1.99-12.15,2.8C474.65,307.44,476.08,311.24,477.29,315.1z"/>
	<path class="st1" d="M242.01,342.59c-4.62,3.13-8.8,6.34-12.57,9.58c0.02,3.26,0.1,6.53,0.35,9.8c3.8-6.15,7.91-12.6,12.2-19.15
		C242.01,342.74,242.01,342.66,242.01,342.59z"/>
	<path class="st1" d="M243.8,241.88c-1.9-3.8-0.64-8.37,0.87-12.34c7.32-19.23,19.78-36.05,32.9-51.9
		c4.73-5.72,9.6-11.38,15.29-16.15c6.31-5.29,13.5-9.4,20.66-13.48c17.09-9.74,34.4-19.58,53.33-24.91
		c12.02-3.38,24.48-4.89,36.88-6.38c23.59-2.84,47.19-5.68,70.78-8.51c10.46-1.26,20.95-2.52,31.49-2.42
		c10.04,0.09,20.05,1.42,30.09,1.43c19.1,0.01,38.17-4.88,54.92-14.06c1.16,5.71-0.61,11.6-2.9,16.95
		c-10.22,23.91-30.93,42.22-54.13,53.95s-48.93,17.51-74.55,21.96c-23.69,4.11-47.6,7.18-71.63,7.95
		c-8.2,0.26-16.43,0.26-24.59,1.13c-9.42,1-18.68,3.16-27.8,5.71c-32.21,9.03-62.99,23.17-90.82,41.73
		c-1.79-5.29-2.1-11.08-0.89-16.53"/>
</g>
</svg>
