<?xml version="1.0" encoding="utf-8"?>
<!-- Generator: Adobe Illustrator 25.0.1, SVG Export Plug-In . SVG Version: 6.00 Build 0)  -->
<svg version="1.1" id="Camada_1" xmlns="http://www.w3.org/2000/svg" xmlns:xlink="http://www.w3.org/1999/xlink" x="0px" y="0px"
	 viewBox="0 0 841.89 595.28" style="enable-background:new 0 0 841.89 595.28;" xml:space="preserve">
<g>
	<path d="M506.25,306c-1.56,0.65-3.16,1.24-4.76,1.84c-1.63,0.61-3.26,1.21-4.93,1.78c-1.7,0.58-3.43,1.13-5.18,1.66
		c-0.91,0.27-1.82,0.56-2.74,0.82c6.44,20.91,7.62,43.22,3.08,65.29c-7.1,34.52-27.18,64.17-56.54,83.5
		c-21.73,14.31-46.65,21.72-72.13,21.72c-8.94,0-17.94-0.91-26.91-2.76c-34.52-7.1-64.17-27.18-83.5-56.53
		c-11.41-17.32-18.03-36.38-20.48-55.69c-18.22,18.67-22.68,36.64-23.57,41.47c26.5,70.69,98.26,116.45,171.08,108.62
		c88.33-9.55,152.43-89.2,142.88-177.53c-1.41-13.08-4.41-25.65-8.75-37.57c-0.51,0.25-1.05,0.46-1.57,0.7
		C510.26,304.24,508.28,305.16,506.25,306z"/>
	<path d="M380.77,318.76c-4.59,0.11-9.08,0.27-13.43,0.52c-1.42,0.08-2.79,0.2-4.19,0.29c-3.14,0.21-6.25,0.43-9.27,0.71
		c-1.72,0.15-3.41,0.33-5.1,0.51c-2.79,0.29-5.53,0.61-8.2,0.95c-1.42,0.18-2.84,0.36-4.24,0.56c-0.82,0.12-1.59,0.26-2.39,0.38
		c-5.36,5.46-9.07,12.35-10.65,20.04c-2.17,10.55-0.11,21.29,5.79,30.26v0c12.21,18.54,37.23,23.68,55.77,11.48
		c18.53-12.21,23.68-37.23,11.48-55.77c-2.62-3.98-5.88-7.29-9.49-10c-0.33,0-0.67,0-0.99,0
		C384.15,318.71,382.44,318.71,380.77,318.76z"/>
	<path d="M596.4,166.71c6.64-6.04,12.51-12.55,17.54-19.55c17.16-23.88,20.85-48.23,21.08-63.71c-7.29,5.96-19.41,12.53-39.48,18.47
		C597.22,115.77,599.01,139.67,596.4,166.71z"/>
	<path d="M517.19,300.89c-1.12,0.58-2.24,1.17-3.39,1.72c4.33,11.92,7.34,24.49,8.75,37.57c9.56,88.33-54.54,167.98-142.88,177.53
		c-72.82,7.83-144.58-37.93-171.08-108.62c-0.14,0.76-0.19,1.2-0.2,1.26l-2.32,22.46c30.79,59.31,92.38,97.88,157.33,97.88
		c5.84,0,11.7-0.31,17.57-0.95c94.98-10.27,163.89-95.9,153.62-190.87c-1.59-14.66-5.03-28.73-10.02-42.03
		c-0.23,0.14-0.48,0.25-0.71,0.39C521.68,298.52,519.45,299.72,517.19,300.89z"/>
	<path d="M480.99,314.08c-1.37,0.32-2.77,0.59-4.16,0.88c6.04,19.19,7.21,39.7,3.03,59.98c-6.45,31.35-24.68,58.27-51.33,75.83
		c-26.65,17.56-58.6,23.66-89.94,17.22c-31.35-6.45-58.28-24.68-75.83-51.33c-12.03-18.27-18.28-38.66-19.4-59.07
		c-4.22,3.33-7.93,6.7-11.2,10.05c2.45,19.31,9.08,38.37,20.48,55.69c19.33,29.35,48.98,49.43,83.5,56.53
		c8.97,1.85,17.97,2.76,26.91,2.76c25.48,0,50.4-7.41,72.13-21.72c29.36-19.33,49.43-48.99,56.54-83.5
		c4.54-22.06,3.36-44.38-3.08-65.29c-0.77,0.22-1.57,0.4-2.35,0.61C484.53,313.18,482.78,313.66,480.99,314.08z"/>
	<path d="M396.31,318.65c-3.22-0.03-6.36-0.01-9.47,0.03c3.62,2.71,6.87,6.02,9.49,10c12.21,18.54,7.06,43.56-11.48,55.77
		c-18.54,12.21-43.56,7.06-55.77-11.48v0c-5.9-8.96-7.96-19.71-5.79-30.26c1.58-7.69,5.3-14.58,10.65-20.04
		c-2.59,0.39-5.18,0.78-7.66,1.22c-0.52,0.09-1.06,0.17-1.58,0.26c-2.76,0.51-5.38,1.08-8.02,1.64c-2.42,4.48-4.2,9.34-5.26,14.47
		c-2.83,13.71-0.15,27.69,7.54,39.36c10.05,15.26,26.78,23.55,43.82,23.55c9.88,0,19.87-2.79,28.72-8.62
		c24.12-15.88,30.82-48.43,14.93-72.54c-0.74-1.13-1.55-2.17-2.37-3.22c-0.92-0.02-1.89-0.07-2.81-0.09
		C399.6,318.68,397.96,318.67,396.31,318.65z"/>
	<path d="M645.73,64.57c0,0-15.57,13.68-52.02,24.96c0.19,0.98,0.99,5.4,1.84,12.4c20.07-5.94,32.19-12.51,39.48-18.47
		c-0.24,15.48-3.92,39.83-21.08,63.71c-5.03,7-10.9,13.51-17.54,19.55c-0.55,5.74-1.29,11.61-2.28,17.58
		c11.69-8.88,21.62-18.88,29.66-30.05C655.05,110.73,646.12,66.44,645.73,64.57z"/>
	<path d="M249.48,237.04c0.18-0.14,0.36-0.28,0.53-0.42c3.86-9.22,8.78-18.98,15.12-28.79c36.04-55.72,97.64-85.27,183.07-87.83
		c60.97-1.82,103.18-7.3,132.39-14.14c1.46-6.21,1.43-10.89,1.29-13.02c-27.59,7-69.68,13.13-134.04,15.05
		c-156.6,4.68-203.61,98.9-217.61,149.98C236.69,249.75,244.11,241.47,249.48,237.04z"/>
	<path d="M519.85,285.44c0.03,0.08,0.07,0.15,0.11,0.22c10.17-6.32,19.23-13.98,27.13-23.1c-0.05,0.03-0.11,0.05-0.16,0.08
		C539.08,271.59,530.03,279.17,519.85,285.44z"/>
	<path d="M566,233.7c0.29-0.28,0.61-0.53,0.89-0.81l20.5-20.02c2.96-9.55,5.15-19.16,6.73-28.58c-4.57,3.47-9.37,6.81-14.49,9.93
		C576.66,207.57,572.25,220.98,566,233.7z"/>
	<path d="M501.49,307.84c-1.63,0.61-3.26,1.21-4.93,1.78C498.22,309.06,499.86,308.45,501.49,307.84z"/>
	<path d="M367.34,319.27c-1.43,0.08-2.78,0.2-4.19,0.29C364.55,319.47,365.92,319.35,367.34,319.27z"/>
	<path d="M543.05,283.48c4.81-4.14,9.34-8.61,13.55-13.46c0.44-0.51,0.83-1.04,1.26-1.55C553.29,273.92,548.34,278.9,543.05,283.48z
		"/>
	<path d="M301.78,329.4c-0.03,0.01-0.07,0.02-0.1,0.03C301.71,329.42,301.75,329.41,301.78,329.4z"/>
	<path d="M366.88,196.42c-0.89,0.42-3.09,1.82-7.83,6.03c10-1.64,20.48-2.84,31.5-3.6C382.82,197.47,374.93,196.63,366.88,196.42z"
		/>
	<path d="M567.46,131.73c-18.21,22.33-61.95,49.89-166.86,54.42c-3.15,0.14-6.22,0.33-9.29,0.53c12.18,2.06,23.95,5.42,35.17,9.91
		c73.89-6.28,124.47-25.45,150.38-57.2c3.41-4.18,6.16-8.31,8.36-12.3c0.52,14.44,0.12,32.1-2.58,50.63
		c4.91-3.48,9.52-7.13,13.78-11.01c2.6-27.05,0.81-50.94-0.86-64.79c-4.56,1.35-9.53,2.67-14.95,3.94
		C578.92,113.01,575.27,122.15,567.46,131.73z"/>
	<path d="M385.84,318.68c-1.69,0.02-3.41,0.03-5.07,0.07C382.44,318.71,384.15,318.71,385.84,318.68z"/>
	<path d="M474.64,315.41c0.73-0.14,1.46-0.29,2.19-0.44c0,0,0-0.01,0-0.01C476.1,315.1,475.37,315.26,474.64,315.41z"/>
	<path d="M442.36,319.21c-2.59,0.12-5.21,0.18-7.85,0.22C437.15,319.39,439.77,319.33,442.36,319.21z"/>
	<path d="M353.88,320.27c-1.73,0.16-3.41,0.33-5.1,0.51C350.48,320.6,352.16,320.42,353.88,320.27z"/>
	<path d="M429.93,319.49c-4.22-0.01-8.49-0.09-12.85-0.29C421.44,319.4,425.71,319.48,429.93,319.49z"/>
	<path d="M207.63,359.36c1.53-21.95,5.95-47.77,16.77-70.19c0.24-3.3,1.4-15.12,5.83-31.3c-4.58,5.76-8.69,11.44-11.19,15.62
		c-31.46,52.56-23.84,127.16-22.78,136.18c-0.01-0.08,0.01-0.19,0.01-0.28C195.92,404.63,195.3,383.45,207.63,359.36z"/>
	<path d="M454.43,318.35c-2.27,0.22-4.55,0.42-6.87,0.57C449.88,318.77,452.17,318.57,454.43,318.35z"/>
	<path d="M402.75,306.62c0.81,0.02,1.6,0.02,2.41,0.05C404.35,306.64,403.56,306.63,402.75,306.62z"/>
	<path d="M488.64,312.1c0.92-0.26,1.83-0.55,2.74-0.82c-0.91,0.27-1.84,0.51-2.75,0.77C488.63,312.07,488.64,312.08,488.64,312.1z"
		/>
	<path d="M576.5,240.02c-5.32,10.49-11.51,19.96-18.58,28.38C565.38,259.53,571.49,249.96,576.5,240.02z"/>
	<path d="M532.51,291.65c-1.79,1.26-3.64,2.45-5.5,3.62C528.88,294.1,530.71,292.9,532.51,291.65z"/>
	<path d="M340.58,321.73c-1.42,0.18-2.85,0.36-4.24,0.56C337.74,322.1,339.16,321.92,340.58,321.73z"/>
	<path d="M257.19,246.38c22.55-18.61,48.61-31.55,79.72-39.36c7.41-7.54,12.84-12.59,16.89-15.96
		c-41.55,7.27-75.21,22.14-103.79,45.56c-4.18,9.98-7.04,19.24-9.05,27.24C246.63,256.86,252.86,249.95,257.19,246.38z"/>
	<path d="M390.79,306.5c0.47,0,0.94,0,1.41,0C391.73,306.5,391.26,306.5,390.79,306.5z"/>
	<path d="M484.66,300.87c8.8-2.42,17.03-5.49,24.69-9.26c-0.04-0.08-0.07-0.17-0.11-0.25c-7.66,3.76-15.9,6.85-24.68,9.29
		C484.59,300.73,484.63,300.8,484.66,300.87z"/>
	<path d="M417.64,307.1c20.2,0.95,38.48-0.22,54.96-3.45c-0.03-0.06-0.06-0.11-0.08-0.17C455.96,306.8,437.67,308.04,417.64,307.1z"
		/>
	<path d="M512.23,303.32c-1.97,0.93-3.95,1.84-5.99,2.69C508.28,305.16,510.26,304.24,512.23,303.32z"/>
	<path d="M466.8,316.79c-2.37,0.37-4.74,0.74-7.17,1.03C462.06,317.53,464.43,317.16,466.8,316.79z"/>
	<path d="M541.19,285.02c-1.91,1.59-3.86,3.12-5.86,4.6C537.33,288.14,539.28,286.6,541.19,285.02z"/>
	<path d="M336.91,207.01c7.11-1.79,14.49-3.31,22.14-4.56c4.73-4.22,6.93-5.61,7.83-6.03c8.04,0.22,15.94,1.06,23.67,2.43
		c3.47-0.24,6.98-0.45,10.56-0.6c8.76-0.38,17.16-0.96,25.35-1.66c-11.22-4.49-22.98-7.85-35.17-9.91
		c-13.18,0.86-25.66,2.3-37.49,4.37C349.76,194.42,344.32,199.48,336.91,207.01z"/>
	<path d="M523.85,297.24c-2.17,1.28-4.4,2.48-6.66,3.65C519.45,299.72,521.68,298.52,523.85,297.24z"/>
	<path d="M509.24,291.37c0.04,0.08,0.07,0.17,0.11,0.25c3.68-1.81,7.19-3.83,10.61-5.95c-0.03-0.08-0.07-0.15-0.11-0.22
		C516.43,287.55,512.92,289.56,509.24,291.37z"/>
	<path d="M396.31,318.65c1.65,0.01,3.29,0.03,4.96,0.06C399.59,318.68,397.95,318.67,396.31,318.65z"/>
	<path d="M326.28,323.9c-0.52,0.09-1.07,0.17-1.58,0.26C325.22,324.07,325.76,323.99,326.28,323.9z"/>
	<path d="M476.83,314.96c1.39-0.29,2.79-0.56,4.16-0.88c-1.36,0.32-2.78,0.58-4.16,0.87C476.82,314.95,476.83,314.96,476.83,314.96z
		"/>
	<path d="M472.61,303.65c4.12-0.81,8.16-1.71,12.05-2.78c-0.03-0.07-0.07-0.14-0.1-0.22c-3.89,1.08-7.92,2-12.03,2.82
		C472.55,303.54,472.58,303.59,472.61,303.65z"/>
	<path d="M486.29,312.71c0.78-0.21,1.58-0.39,2.35-0.61c-0.01-0.02-0.01-0.03-0.02-0.05C487.85,312.27,487.08,312.5,486.29,312.71z"
		/>
	<path d="M580.6,105.86c5.42-1.27,10.39-2.59,14.95-3.94c0-7.09-1.65-11.41-1.84-12.4c-3.61,1.12-7.54,2.22-11.82,3.31
		C582.02,94.97,581.67,99.64,580.6,105.86z"/>
	<path d="M229.43,279.71c2.45-4.09,6.8-10.01,11.53-15.86c2.01-8,4.88-17.26,9.05-27.24c-0.18,0.14-0.36,0.28-0.53,0.42
		c-5.37,4.43-12.79,12.71-19.25,20.84c-4.43,16.17-5.59,28-5.83,31.3C225.96,285.94,227.6,282.77,229.43,279.71z"/>
	<path d="M582.63,177.72c-0.79,5.45-1.77,10.96-3,16.5c5.13-3.12,9.92-6.45,14.49-9.93c0.99-5.96,1.73-11.83,2.28-17.58
		C592.15,170.58,587.54,174.24,582.63,177.72z"/>
	<path d="M447.56,318.92c-1.72,0.11-3.46,0.21-5.2,0.29C444.11,319.13,445.84,319.04,447.56,318.92z"/>
	<path d="M363.15,319.56c-3.13,0.21-6.23,0.43-9.27,0.71C356.9,320,360.01,319.77,363.15,319.56z"/>
	<path d="M557.92,268.4c-0.02,0.02-0.04,0.05-0.06,0.07C557.88,268.45,557.9,268.42,557.92,268.4z"/>
	<path d="M380.77,318.76c-4.55,0.11-9.03,0.27-13.43,0.52C371.69,319.03,376.18,318.87,380.77,318.76z"/>
	<path d="M348.78,320.78c-2.77,0.29-5.5,0.61-8.2,0.95C343.26,321.39,346,321.07,348.78,320.78z"/>
	<path d="M405.16,306.66c4.11,0.1,8.27,0.24,12.48,0.44C413.39,306.9,409.25,306.77,405.16,306.66z"/>
	<path d="M524.56,296.85c0.84-0.5,1.62-1.06,2.45-1.58c-0.82,0.51-1.63,1.04-2.46,1.54C524.55,296.82,524.56,296.84,524.56,296.85z"
		/>
	<path d="M244.18,341.39c-0.15,0.22-0.29,0.44-0.43,0.66c16.17-10.91,37.77-20.79,66.78-27.37c1.79-0.41,3.65-0.79,5.51-1.17
		l1.73-0.35c1.18-0.25,2.35-0.49,3.57-0.71c2.33-0.44,4.74-0.81,7.14-1.2c0.06-0.05,0.12-0.11,0.18-0.16
		C290.65,317.13,263.52,328.47,244.18,341.39z"/>
	<path d="M390.79,306.5c-0.1,0-0.2,0-0.3,0c0,0,0,0,0.01,0C390.6,306.51,390.69,306.5,390.79,306.5z"/>
	<path d="M434.5,319.43c-1.52,0.02-3.03,0.06-4.58,0.06C431.47,319.5,432.98,319.45,434.5,319.43z"/>
	<path d="M392.2,306.5c3.48,0,7,0.04,10.55,0.11C399.18,306.54,395.66,306.51,392.2,306.5z"/>
	<path d="M512.23,303.32c0.52-0.24,1.05-0.46,1.57-0.7c0,0,0-0.01,0-0.01C513.28,302.85,512.75,303.07,512.23,303.32z"/>
	<path d="M313.21,326.49c-3.98,0.9-7.75,1.89-11.43,2.91c4.7-1.31,9.73-2.49,14.91-3.6c0.01-0.02,0.02-0.04,0.03-0.06
		C315.47,326,314.3,326.24,313.21,326.49z"/>
	<path d="M506.25,306c-1.56,0.65-3.16,1.24-4.76,1.84C503.08,307.24,504.69,306.65,506.25,306z"/>
	<path d="M404.07,318.8c4.27,0.1,8.54,0.19,13,0.4c-4.4-0.21-8.75-0.36-13.04-0.46C404.05,318.76,404.06,318.78,404.07,318.8z"/>
	<path d="M243.35,357.27c0.01,0.1,0.01,0.21,0.01,0.31c13.57-10.69,32.32-20.88,58.31-28.15
		C275.69,336.66,256.91,346.7,243.35,357.27z"/>
	<path d="M496.56,309.62c-1.71,0.58-3.43,1.13-5.18,1.66C493.13,310.75,494.85,310.2,496.56,309.62z"/>
	<path d="M474.64,315.41c-2.58,0.51-5.19,0.97-7.84,1.39C469.45,316.38,472.06,315.92,474.64,315.41z"/>
	<path d="M543.05,283.48c-0.61,0.53-1.24,1.02-1.86,1.54C541.81,284.5,542.44,284.01,543.05,283.48z"/>
	<path d="M232.11,367.26c-18.38,18.71-22.67,36.78-23.53,41.81c0,0.01,0.01,0.02,0.01,0.02c0.89-4.83,5.35-22.79,23.57-41.47
		C232.15,367.51,232.13,367.39,232.11,367.26z"/>
	<path d="M385.84,318.68c0.33,0,0.67,0,0.99,0c0,0-0.01-0.01-0.01-0.01C386.49,318.67,386.17,318.68,385.84,318.68z"/>
	<path d="M334.01,322.6c-0.02,0.02-0.04,0.05-0.07,0.07c0.81-0.12,1.58-0.26,2.39-0.38C335.57,322.4,334.78,322.49,334.01,322.6z"/>
	<path d="M535.33,289.62c-0.93,0.69-1.87,1.36-2.82,2.03C533.46,290.98,534.4,290.31,535.33,289.62z"/>
	<path d="M459.63,317.82c-1.71,0.21-3.46,0.36-5.19,0.53C456.17,318.18,457.92,318.03,459.63,317.82z"/>
	<path d="M244.18,341.39c-0.22,0.15-0.43,0.29-0.65,0.44c-0.01,0.13-0.01,0.26-0.02,0.39c0.08-0.05,0.16-0.11,0.24-0.16
		C243.9,341.83,244.04,341.61,244.18,341.39z"/>
	<path d="M208.59,409.1c0-0.01-0.01-0.02-0.01-0.02c-0.12,0.68-0.18,1.14-0.2,1.31l-2.49,22.09c0.06,0.12,0.12,0.23,0.18,0.35
		l2.32-22.46C208.4,410.3,208.45,409.85,208.59,409.1z"/>
	<path d="M513.8,302.61c1.15-0.55,2.27-1.14,3.39-1.72c-1.12,0.58-2.25,1.16-3.39,1.71C513.79,302.61,513.8,302.61,513.8,302.61z"/>
	<path d="M523.85,297.24c0.23-0.14,0.48-0.25,0.71-0.39c-0.01-0.01-0.01-0.03-0.02-0.04C524.31,296.95,524.09,297.1,523.85,297.24z"
		/>
	<path d="M486.29,312.71c-1.76,0.47-3.51,0.95-5.31,1.37C482.78,313.66,484.53,313.18,486.29,312.71z"/>
	<path d="M243.36,357.58c-0.01-0.1-0.01-0.21-0.01-0.31c-4.24,3.31-7.96,6.65-11.24,9.99c0.02,0.12,0.03,0.25,0.05,0.37
		C235.43,364.28,239.14,360.91,243.36,357.58z"/>
	<path d="M323.55,324.35c-1.13,0.21-2.23,0.44-3.32,0.67l-1.32,0.27c-0.8,0.16-1.49,0.3-2.19,0.45c-0.01,0.02-0.02,0.04-0.03,0.06
		c2.64-0.56,5.25-1.14,8.02-1.64C324.33,324.23,323.93,324.28,323.55,324.35z"/>
	<path d="M401.27,318.71c0.91,0.02,1.88,0.07,2.81,0.09c-0.01-0.02-0.03-0.04-0.04-0.06C403.1,318.72,402.2,318.73,401.27,318.71z"
		/>
	<path d="M386.82,318.67c0,0,0.01,0.01,0.01,0.01c3.11-0.03,6.25-0.05,9.47-0.03C393.11,318.63,389.95,318.63,386.82,318.67z"/>
	<path d="M326.28,323.9c2.48-0.44,5.07-0.83,7.66-1.22c0.02-0.02,0.04-0.05,0.07-0.07C331.39,323,328.84,323.45,326.28,323.9z"/>
	<path d="M390.49,306.5c-23.29,0.06-43.79,1.72-61.84,4.59c-0.06,0.05-0.12,0.11-0.18,0.16
		C347.41,308.19,368.15,306.59,390.49,306.5C390.5,306.51,390.5,306.51,390.49,306.5z"/>
	<path d="M243.54,341.83c-4.59,3.1-8.76,6.28-12.5,9.51c0,0.13,0.01,0.25,0.01,0.38c3.74-3.22,7.88-6.4,12.46-9.5
		C243.53,342.08,243.53,341.96,243.54,341.83z"/>
	<path d="M207.63,359.36c-12.33,24.09-11.71,45.27-11.37,50.04c-0.3-6.03,3.88-16.65,10.65-29.6
		C206.92,373.61,207.12,366.7,207.63,359.36z"/>
	<path d="M488.63,312.05c0.92-0.26,1.85-0.5,2.75-0.77c1.75-0.53,3.47-1.08,5.18-1.66c1.67-0.56,3.3-1.17,4.93-1.78
		c1.6-0.6,3.2-1.19,4.76-1.84c2.04-0.85,4.01-1.76,5.99-2.69c0.52-0.24,1.05-0.47,1.56-0.72c-1.36-3.73-2.83-7.39-4.45-10.99
		c-7.65,3.77-15.89,6.84-24.69,9.26C486.17,304.54,487.46,308.28,488.63,312.05z"/>
	<path d="M231.4,361.43c-13.97,22.6-23.79,41.21-23.25,46.62c0.13,0.35,0.3,0.68,0.43,1.03c0.86-5.03,5.15-23.1,23.53-41.81
		C231.87,365.32,231.56,363.38,231.4,361.43z"/>
	<path d="M566,233.7c-4.95,10.06-11.01,19.69-18.59,28.43c-0.16,0.18-0.33,0.34-0.48,0.52c0.05-0.03,0.11-0.05,0.16-0.08
		c-7.9,9.12-16.96,16.78-27.13,23.1c1.67,3.64,3.17,7.37,4.59,11.14c0.83-0.5,1.64-1.02,2.46-1.54c1.86-1.17,3.71-2.37,5.5-3.62
		c0.95-0.66,1.89-1.34,2.82-2.03c2-1.48,3.95-3.01,5.86-4.6c0.62-0.51,1.25-1.01,1.86-1.54c5.29-4.58,10.24-9.56,14.81-15.01
		c0.02-0.02,0.04-0.05,0.06-0.07c7.07-8.43,13.26-17.89,18.58-28.38c4.45-8.84,8.04-17.95,10.89-27.15l-20.5,20.02
		C566.61,233.17,566.29,233.42,566,233.7z"/>
	<path d="M301.78,329.4c3.68-1.02,7.45-2.01,11.43-2.91c1.09-0.25,2.26-0.49,3.51-0.75c2.98-5.49,6.97-10.37,11.76-14.49
		c-2.39,0.39-4.8,0.76-7.14,1.2c-1.22,0.22-2.4,0.47-3.57,0.71l-1.73,0.35c-1.86,0.38-3.72,0.76-5.51,1.17
		c-29.01,6.58-50.61,16.46-66.78,27.37c-0.08,0.13-0.17,0.25-0.25,0.38c-0.35,4.93-0.41,9.88-0.15,14.84
		c13.55-10.58,32.34-20.62,58.32-27.84C301.71,329.42,301.75,329.41,301.78,329.4z"/>
	<path d="M340.58,321.73c2.7-0.35,5.43-0.67,8.2-0.95c1.69-0.18,3.37-0.35,5.1-0.51c3.04-0.27,6.15-0.5,9.27-0.71
		c1.41-0.09,2.76-0.21,4.19-0.29c4.4-0.24,8.88-0.4,13.43-0.52c1.66-0.04,3.38-0.05,5.07-0.07c0.33,0,0.65-0.01,0.98-0.01
		c-7.03-5.26-15.54-8.09-24.18-8.09c-7.59,0-15.28,2.14-22.08,6.62c-2.4,1.58-4.57,3.4-6.54,5.4c0.76-0.11,1.56-0.2,2.33-0.31
		C337.73,322.1,339.16,321.92,340.58,321.73z"/>
	<path d="M417.64,307.1c-4.21-0.2-8.37-0.34-12.48-0.44c-0.81-0.02-1.6-0.03-2.41-0.05c-3.55-0.07-7.07-0.12-10.55-0.11
		c-0.47,0-0.94,0-1.41,0c-0.1,0-0.19,0-0.29,0c5.09,3.18,9.68,7.27,13.53,12.23c4.29,0.1,8.64,0.25,13.04,0.46
		c4.37,0.2,8.64,0.28,12.85,0.29c1.54,0,3.05-0.04,4.58-0.06c2.65-0.04,5.27-0.11,7.85-0.22c1.75-0.08,3.48-0.17,5.2-0.29
		c2.32-0.15,4.6-0.35,6.87-0.57c1.74-0.17,3.49-0.32,5.19-0.53c2.43-0.29,4.8-0.66,7.17-1.03c2.65-0.41,5.27-0.88,7.84-1.39
		c0.73-0.15,1.46-0.3,2.18-0.46c-1.21-3.83-2.62-7.59-4.22-11.3C456.12,306.88,437.85,308.05,417.64,307.1z"/>
	<path d="M513.79,302.6c1.15-0.55,2.27-1.13,3.39-1.71c2.26-1.17,4.49-2.37,6.66-3.65c0.24-0.14,0.46-0.29,0.7-0.44
		c-1.42-3.77-2.92-7.5-4.59-11.14c-3.42,2.13-6.93,4.14-10.61,5.95C510.96,295.21,512.44,298.87,513.79,302.6z"/>
	<path d="M231.4,361.43c-0.26-3.24-0.33-6.48-0.35-9.71c-11.29,9.72-18.99,19.73-24.14,28.63c0-0.17,0-0.36,0-0.54
		c-6.77,12.95-10.95,23.57-10.65,29.6c0.02,0.25,0.03,0.41,0.04,0.56c0.07,0.68,0.18,1.32,0.38,1.86c2.62,7.15,5.78,14,9.21,20.65
		l2.49-22.09c0.02-0.17,0.08-0.64,0.2-1.31c-0.13-0.35-0.3-0.68-0.43-1.03C207.61,402.64,217.44,384.02,231.4,361.43z"/>
	<path d="M243.52,342.21c-0.01,0.07-0.01,0.15-0.01,0.22c0.08-0.13,0.17-0.25,0.25-0.38C243.67,342.11,243.59,342.16,243.52,342.21z
		"/>
	<path d="M320.23,325.02c1.09-0.23,2.19-0.46,3.32-0.67c0.38-0.07,0.77-0.12,1.15-0.19c0.51-0.09,1.06-0.17,1.58-0.26
		c2.55-0.45,5.1-0.9,7.73-1.29c1.97-2,4.15-3.82,6.54-5.4c6.81-4.48,14.49-6.62,22.08-6.62c8.64,0,17.15,2.83,24.18,8.09
		c3.13-0.04,6.29-0.04,9.49-0.01c1.65,0.01,3.29,0.03,4.96,0.06c0.93,0.02,1.83,0.01,2.77,0.03c-3.85-4.96-8.44-9.05-13.53-12.23
		c-22.35,0.08-43.09,1.68-62.02,4.74c-4.78,4.12-8.77,9-11.76,14.49c0.7-0.14,1.39-0.29,2.19-0.45L320.23,325.02z"/>
	<path d="M243.35,357.27c-0.26-4.96-0.2-9.91,0.15-14.84c-4.25,6.5-8.33,12.89-12.1,18.99c0.15,1.95,0.47,3.89,0.71,5.84
		C235.39,363.93,239.12,360.58,243.35,357.27z"/>
	<path d="M476.82,314.95c1.39-0.29,2.8-0.55,4.16-0.87c1.8-0.42,3.55-0.9,5.31-1.37c0.79-0.21,1.56-0.44,2.34-0.66
		c-1.16-3.77-2.46-7.51-3.97-11.17c-3.89,1.07-7.93,1.97-12.05,2.78C474.2,307.36,475.62,311.12,476.82,314.95z"/>
	<path d="M243.52,342.21c-4.58,3.1-8.73,6.28-12.46,9.5c0.02,3.24,0.09,6.48,0.35,9.71c3.77-6.1,7.85-12.49,12.1-18.99
		C243.51,342.36,243.51,342.29,243.52,342.21z"/>
	<path d="M288.18,170.08c9.58-9.31,19.77-18.57,32.31-23.17c7.69-2.82,16.1-3.82,23.2-7.9c6.18-3.55,10.94-9.2,17.08-12.82
		c9.53-5.62,21.2-5.75,32.26-6.13c17.76-0.6,35.47-2.24,53.17-3.87c47.91-4.43,95.82-8.85,143.74-13.28
		c-8.53,15.91-17.45,32.04-30.77,44.22c-12.95,11.84-29.33,19.23-45.84,25.17c-24.52,8.82-50.03,14.88-75.9,18.01
		c-48.09,5.83-99.39,2.17-142.01,25.2c-11.63,6.29-22.14,14.37-33.44,21.2c-9.65,5.83-18.07,7.86-15.45-6.85
		C250.66,206.73,272.1,185.7,288.18,170.08z"/>
</g>
</svg>
