<?xml version="1.0" encoding="utf-8"?>
<!-- Generator: Adobe Illustrator 25.0.1, SVG Export Plug-In . SVG Version: 6.00 Build 0)  -->
<svg version="1.1" id="Camada_1" xmlns="http://www.w3.org/2000/svg" xmlns:xlink="http://www.w3.org/1999/xlink" x="0px" y="0px"
	 viewBox="0 0 841.89 595.28" style="enable-background:new 0 0 841.89 595.28;" xml:space="preserve">
<style type="text/css">
	.st0{fill:#007EAA;}
	.st1{fill:#C9E8FB;}
	.st2{opacity:0.35;fill:#006391;}
</style>
<g>
	<g>
		<path class="st0" d="M524.68,340.32c-8.8-81.36-76.71-142-156.37-143.81c-4.81-0.11-23.58,18.89-43.2,40.33
			c51.14-17.73,109.8,0.49,140.91,47.71c36.76,55.81,21.26,131.12-34.55,167.88c-55.81,36.76-131.12,21.26-167.88-34.55
			c-15.52-23.56-21.62-50.59-19.41-76.73c-20.22,30.95-36.46,59.98-33.93,66.85c25.37,69.23,95.17,118.15,171.54,109.89
			C470.27,508.31,534.25,428.81,524.68,340.32z"/>
		
			<ellipse transform="matrix(0.1338 -0.991 0.991 0.1338 -32.0589 665.7393)" class="st0" cx="364.79" cy="351.21" rx="44.65" ry="44.65"/>
	</g>
	<path class="st0" d="M237.25,292.95c0,0,6.32-164,209.79-170.08c185.23-5.54,184.86-46.38,184.86-46.38s27.53,129.83-175.22,153.35
		S237.25,292.95,237.25,292.95z"/>
	<path class="st1" d="M581.72,100.34c0,0,14.37,89.57-180.15,97.95c-68.95,2.97-111.51,22.39-142.2,47.73
		c-8.11,6.7-22.4,24.19-28.05,33.64c-30.96,51.72-21.08,128.33-21.08,128.33s6.59-63.5,105.55-85.94c1.83-0.41,3.73-0.8,5.62-1.18
		c1.52-0.31,3.02-0.63,4.58-0.92c24.83-4.62,54.93-6.78,91.49-5.06C624.59,324.59,581.72,100.34,581.72,100.34z"/>
	<path class="st2" d="M565.71,241.7c-24.15,23.59-69.92,47.44-163.74,46.99c-204.91-0.99-191.73,119.31-191.73,119.31
		s10.57-102.32,207.24-93.11C504.42,318.96,545.2,282.2,565.71,241.7z"/>
</g>
</svg>
